# xmcd
#
# Track frame offsets:
#	150
#	19167
#	37940
#	56000
#	71865
#	89950
#	106237
#	120325
#	135115
#	148627
#
# Disc length: 2162
#
# Revision: 4
# Processed by: cddbd v1.5.1PL0 Copyright (c) Steve Scherf et al.
# Submitted via: CDex 1.51
# Normalized: r2:TDELIM( - ),TSWAP
#
DISCID=8708700a
DTITLE=Various Artist - The Greatist Greatist Hits
DYEAR=1900
DGENRE=Country
TTITLE0=Alabama - There's No Way
TTITLE1=Juice Newton - You Make Me Want To Make You Mine
TTITLE2=Ronnie Milsap - She Keeps The Home Fires Burning
TTITLE3=Earl Thomas Conley - Love Don't Care
TTITLE4=The Judds - Love Is Alive
TTITLE5=Restless Heart - Let The Heartache Ride
TTITLE6=Eddy Raven - Operator, Operator
TTITLE7=Dolly Parton - Don't Call It Love
TTITLE8=Sylvia - Fallin' In Love
TTITLE9=Waylon - Drinkin' And Dreamin'
EXTD=
EXTT0=
EXTT1=
EXTT2=
EXTT3=
EXTT4=
EXTT5=
EXTT6=
EXTT7=
EXTT8=
EXTT9=
PLAYORDER=
